<?xml version="1.0" standalone="no"?>
<!DOCTYPE svg PUBLIC "-//W3C//DTD SVG 20010904//EN"
 "http://www.w3.org/TR/2001/REC-SVG-20010904/DTD/svg10.dtd">
<svg version="1.0" xmlns="http://www.w3.org/2000/svg"
 width="200.000000pt" height="200.000000pt" viewBox="0 0 200.000000 200.000000"
 preserveAspectRatio="xMidYMid meet">

<g transform="translate(0.000000,200.000000) scale(0.100000,-0.100000)"
fill="#E52C1A" stroke="none">
<path d="M328 1682 l-208 -147 0 -371 0 -371 193 -136 192 -137 3 365 2 365
210 147 c115 82 209 150 209 153 0 5 -305 222 -368 262 l-26 17 -207 -147z"/>
<path d="M1233 1692 c-106 -76 -192 -139 -192 -142 -1 -3 94 -72 209 -153
l210 -148 2 -364 3 -363 193 136 192 136 0 371 -1 370 -208 148 c-115 81 -210
147 -212 146 -2 0 -90 -62 -196 -137z"/>
<path d="M760 1356 l-185 -132 -3 -348 c-1 -221 1 -347 7 -344 6 1 91 61 191
131 l180 128 0 349 c0 193 -1 350 -2 349 -2 0 -86 -60 -188 -133z"/>
<path d="M1010 1143 l0 -348 127 -90 c70 -50 158 -111 195 -138 l68 -48 0 350
0 349 -182 130 c-101 71 -189 132 -195 136 -10 6 -13 -65 -13 -341z"/>
<path d="M782 600 l-193 -138 138 -98 c76 -53 165 -116 197 -140 l59 -43 26
18 c281 199 356 253 359 260 3 9 -355 268 -380 275 -7 2 -100 -58 -206 -134z"/>
</g>
</svg>
